<svg width="22" height="22" viewBox="0 0 22 22" fill="none" xmlns="http://www.w3.org/2000/svg">
<path d="M10.9999 9.00012V13.2601H16.9199C16.6599 14.6301 15.8798 15.7901 14.7099 16.5701L18.2798 19.3401C20.3598 17.4202 21.5598 14.6002 21.5598 11.2502C21.5598 10.4702 21.4898 9.72017 21.3598 9.00024L10.9999 9.00012Z" fill="black"/>
<path d="M4.83503 13.0938L4.02987 13.7101L1.17984 15.93C2.98982 19.52 6.69952 22 10.9995 22C13.9694 22 16.4593 21.02 18.2793 19.3401L14.7094 16.5701C13.7294 17.23 12.4794 17.6301 10.9995 17.6301C8.1395 17.6301 5.70958 15.7001 4.83953 13.1001L4.83503 13.0938Z" fill="black"/>
<path d="M1.17991 6.0697C0.429952 7.54963 0 9.21964 0 10.9996C0 12.7796 0.429952 14.4496 1.17991 15.9295C1.17991 15.9394 4.83994 13.0895 4.83994 13.0895C4.61995 12.4295 4.48991 11.7296 4.48991 10.9995C4.48991 10.2694 4.61995 9.56945 4.83994 8.90945L1.17991 6.0697Z" fill="black"/>
<path d="M10.9997 4.37997C12.6197 4.37997 14.0597 4.93995 15.2097 6.01996L18.3596 2.87002C16.4496 1.09006 13.9697 0 10.9997 0C6.69975 0 2.98982 2.46998 1.17984 6.06997L4.83977 8.90995C5.70971 6.30994 8.13972 4.37997 10.9997 4.37997Z" fill="black"/>
</svg>
