<svg width="102" height="87" viewBox="0 0 102 87" fill="none" xmlns="http://www.w3.org/2000/svg">
<path d="M48.47 22.604C66.908 15.271 87.072 21.062 96.228 29.929C98.212 31.85 99.897 33.799 101.34 35.736C102.163 31.188 102.23 26.658 101.438 22.277C98.545 6.28098 83.454 -2.78102 69.925 1.89998C56.457 6.55998 51.204 15.617 51.204 15.617C51.204 15.617 45.951 6.55998 32.483 1.89998C18.953 -2.78102 3.86201 6.28198 0.970006 22.277C-1.16499 34.082 2.87801 46.97 11.457 58.359C13.264 58.966 15.158 59.422 17.164 59.685C29.182 61.265 33.502 58.051 38.579 55.899C41.95 54.471 44.486 56.092 44.363 57.228C44.172 58.989 37.527 61.998 38.952 62.63C44.578 65.126 51.506 65.147 56.727 60.688C63.215 55.148 65.642 58.935 65.642 58.935C65.642 58.935 62.42 67.154 52.718 71.235C44.623 74.64 36.141 75.479 28.39 74.607C35.075 79.332 42.751 83.293 51.204 86.12C75.371 78.036 93.224 60.718 99.518 42.612C95.254 38.405 90.024 35.797 83.79 34.852C71.805 33.035 67.423 36.164 62.304 38.215C58.905 39.577 56.402 37.906 56.548 36.772C56.773 35.015 63.477 32.138 62.064 31.477C56.489 28.871 49.562 28.713 44.254 33.068C37.658 38.479 35.306 34.645 35.306 34.645C35.306 34.645 38.689 26.493 48.47 22.604ZM43.883 45.133H48.539V40.477H53.867V45.133H58.523V50.461H53.867V55.117H48.539V50.461H43.883V45.133Z" fill="url(#paint0_linear_1_16)"/>
<defs>
<linearGradient id="paint0_linear_1_16" x1="13.9482" y1="69.2965" x2="88.5981" y2="-5.35331" gradientUnits="userSpaceOnUse">
<stop stop-color="#0076C1"/>
<stop offset="0.0737" stop-color="#0B82C6"/>
<stop offset="0.2766" stop-color="#269ED3"/>
<stop offset="0.4546" stop-color="#36AFDA"/>
<stop offset="0.587" stop-color="#3CB5DD"/>
</linearGradient>
</defs>
</svg>
